<?xml version="1.0" standalone="no"?>
<!DOCTYPE svg PUBLIC "-//W3C//DTD SVG 20010904//EN"
 "http://www.w3.org/TR/2001/REC-SVG-20010904/DTD/svg10.dtd">
<svg version="1.0" xmlns="http://www.w3.org/2000/svg"
 width="400.000000pt" height="400.000000pt" viewBox="0 0 400.000000 400.000000"
 preserveAspectRatio="xMidYMid meet">
<metadata>
Created by potrace 1.14, written by Peter Selinger 2001-2017
</metadata>
<g transform="translate(0.000000,400.000000) scale(0.100000,-0.100000)"
fill="#000000" stroke="none">
<path d="M1805 3981 c-3 -2 -13 -6 -23 -7 -116 -14 -195 -39 -310 -99 -120
-62 -175 -109 -317 -269 -141 -159 -215 -279 -239 -391 -2 -5 -9 -30 -16 -55
-7 -25 -14 -58 -16 -75 -1 -16 -5 -61 -9 -100 -7 -80 -8 -248 0 -284 2 -14 7
-52 10 -85 3 -34 7 -72 9 -86 6 -40 84 -290 105 -335 92 -203 102 -228 96
-264 -2 -20 -7 -56 -10 -80 -3 -23 -8 -57 -11 -75 -4 -17 -7 -40 -8 -51 -2
-11 -9 -55 -16 -97 -12 -68 -19 -82 -57 -123 -24 -26 -41 -50 -38 -55 3 -4 -2
-11 -10 -14 -8 -3 -14 -9 -13 -13 1 -4 -3 -17 -9 -28 -6 -11 -9 -29 -6 -40 2
-11 5 -37 6 -58 2 -34 -1 -38 -33 -49 -19 -6 -36 -10 -38 -9 -1 1 -12 -7 -23
-18 -11 -10 -103 -74 -204 -142 -104 -70 -184 -131 -185 -140 0 -8 -4 -19 -8
-25 -5 -5 -17 -31 -26 -59 -10 -27 -26 -68 -36 -90 -15 -34 -30 -74 -35 -95
-1 -3 -7 -18 -14 -35 -6 -16 -21 -53 -32 -81 -11 -29 -22 -58 -23 -65 -2 -8
-6 -21 -9 -29 -3 -8 -20 -62 -37 -120 -42 -140 -64 -204 -89 -268 -12 -29 -21
-57 -21 -62 0 -7 646 -10 1780 -10 979 0 1780 2 1780 4 0 2 -10 26 -22 53 -11
26 -22 53 -24 58 -1 6 -10 28 -19 50 -9 22 -19 51 -22 65 -10 55 -64 296 -70
310 -3 8 -7 22 -8 30 -7 33 -14 61 -20 71 -4 5 -8 20 -10 32 -4 22 -51 189
-62 217 -3 8 -7 20 -9 27 -3 15 -42 72 -63 93 -9 9 -80 64 -157 123 -133 100
-178 126 -381 218 l-53 24 28 33 c21 24 38 67 60 150 29 108 31 126 27 237 -6
161 -12 202 -56 340 -29 96 -45 255 -30 312 12 47 21 125 26 223 1 41 15 131
29 200 15 69 30 169 33 223 5 86 3 108 -18 175 -13 42 -26 79 -29 82 -4 3 -17
33 -29 68 -26 68 -71 132 -140 196 -24 23 -60 57 -80 76 -46 46 -127 111 -138
112 -15 1 -38 11 -63 28 -14 10 -41 21 -60 25 -19 4 -46 16 -59 26 -13 11 -29
19 -35 19 -7 0 -22 10 -35 21 -24 22 -90 43 -176 54 -64 9 -194 13 -200 6z
m-632 -2257 c1 -10 6 -24 10 -30 4 -7 -4 -19 -18 -28 -28 -19 -27 -25 -10 60
7 29 13 28 18 -2z"/>
</g>
</svg>
